HIERARCHY
ROOT Hips
{
	OFFSET 0.000000 0.000000 0.000000
	CHANNELS 6 Xposition Yposition Zposition Xrotation Yrotation Zrotation
	JOINT LeftUpLeg_virtual
	{
		OFFSET 0.000000 0.000000 0.000000
		CHANNELS 3 Xrotation Yrotation Zrotation
		JOINT LeftUpLeg
		{
			OFFSET 11.394100 -6.187798 -0.413800
			CHANNELS 3 Xrotation Yrotation Zrotation
			JOINT LeftLeg
			{
				OFFSET 0.430247 -32.302673 3.732800
				CHANNELS 3 Xrotation Yrotation Zrotation
				JOINT LeftFoot
				{
					OFFSET -0.430247 -48.264931 -6.423300
					CHANNELS 3 Xrotation Yrotation Zrotation
					JOINT LeftToeBase
					{
						OFFSET 4.230900 -16.068199 23.438400
						CHANNELS 3 Xrotation Yrotation Zrotation
						JOINT LeftToe_End
						{
							OFFSET 4.510700 0.695400 19.974600
							CHANNELS 3 Xrotation Yrotation Zrotation
							End Site
							{
								OFFSET 0 0 0
							}
						}
					}
				}
			}
		}
	}
	JOINT RightUpLeg_virtual
	{
		OFFSET 0.000000 0.000000 0.000000
		CHANNELS 3 Xrotation Yrotation Zrotation
		JOINT RightUpLeg
		{
			OFFSET -11.333700 -6.187798 -0.413800
			CHANNELS 3 Xrotation Yrotation Zrotation
			JOINT RightLeg
			{
				OFFSET -0.430392 -32.302628 3.733000
				CHANNELS 3 Xrotation Yrotation Zrotation
				JOINT RightFoot
				{
					OFFSET 0.430392 -48.264973 -6.423500
					CHANNELS 3 Xrotation Yrotation Zrotation
					JOINT RightToeBase
					{
						OFFSET -4.230900 -16.068199 23.438400
						CHANNELS 3 Xrotation Yrotation Zrotation
						JOINT RightToe_End
						{
							OFFSET -4.510700 0.695400 19.974600
							CHANNELS 3 Xrotation Yrotation Zrotation
							End Site
							{
								OFFSET 0 0 0
							}
						}
					}
				}
			}
		}
	}
	JOINT Spine_virtual
	{
		OFFSET 0.000000 0.000000 0.000000
		CHANNELS 3 Xrotation Yrotation Zrotation
		JOINT Spine
		{
			OFFSET -0.002400 12.777504 0.315300
			CHANNELS 3 Xrotation Yrotation Zrotation
			JOINT Spine1
			{
				OFFSET -0.002067 5.816869 0.032633
				CHANNELS 3 Xrotation Yrotation Zrotation
				JOINT Spine1_split
				{
					OFFSET -0.002067 5.816869 0.032633
					CHANNELS 3 Xrotation Yrotation Zrotation
					JOINT Spine2
					{
						OFFSET -0.002067 5.816869 0.032633
						CHANNELS 3 Xrotation Yrotation Zrotation
						JOINT Neck_virtual
						{
							OFFSET 0.000000 0.000000 0.000000
							CHANNELS 3 Xrotation Yrotation Zrotation
							JOINT Neck
							{
								OFFSET -0.003700 21.199493 -0.826900
								CHANNELS 3 Xrotation Yrotation Zrotation
								JOINT Head
								{
									OFFSET 0.000000 20.442200 4.834800
									CHANNELS 3 Xrotation Yrotation Zrotation
									JOINT HeadTop_End
									{
										OFFSET 0.000000 34.668396 4.968400
										CHANNELS 3 Xrotation Yrotation Zrotation
										End Site
										{
											OFFSET 0 0 0
										}
									}
								}
							}
						}
						JOINT LeftShoulder_virtual
						{
							OFFSET 0.000000 0.000000 0.000000
							CHANNELS 3 Xrotation Yrotation Zrotation
							JOINT LeftShoulder
							{
								OFFSET 3.288150 8.794197 -1.372250
								CHANNELS 3 Xrotation Yrotation Zrotation
								JOINT LeftShoulder_split
								{
									OFFSET 3.288150 8.794197 -1.372250
									CHANNELS 3 Xrotation Yrotation Zrotation
									JOINT LeftArm
									{
										OFFSET 11.953299 -2.279007 -0.146200
										CHANNELS 3 Xrotation Yrotation Zrotation
										JOINT LeftForeArm
										{
											OFFSET 18.448900 0.000000 0.000000
											CHANNELS 3 Xrotation Yrotation Zrotation
											JOINT LeftHand
											{
												OFFSET 29.527798 0.000000 0.000000
												CHANNELS 3 Xrotation Yrotation Zrotation
												End Site
												{
													OFFSET 0 0 0
												}
											}
										}
									}
								}
							}
						}
						JOINT RightShoulder_virtual
						{
							OFFSET 0.000000 0.000000 0.000000
							CHANNELS 3 Xrotation Yrotation Zrotation
							JOINT RightShoulder
							{
								OFFSET -3.249400 8.794197 -1.372250
								CHANNELS 3 Xrotation Yrotation Zrotation
								JOINT RightShoulder_split
								{
									OFFSET -3.249400 8.794197 -1.372250
									CHANNELS 3 Xrotation Yrotation Zrotation
									JOINT RightArm
									{
										OFFSET -11.953299 -2.279007 -0.146200
										CHANNELS 3 Xrotation Yrotation Zrotation
										JOINT RightForeArm
										{
											OFFSET -18.448900 0.000000 0.000000
											CHANNELS 3 Xrotation Yrotation Zrotation
											JOINT RightHand
											{
												OFFSET -29.527802 0.000000 0.000000
												CHANNELS 3 Xrotation Yrotation Zrotation
												End Site
												{
													OFFSET 0 0 0
												}
											}
										}
									}
								}
							}
						}
					}
				}
			}
		}
	}
}
MOTION
Frames: 4
Frame Time: 0.03333333
-136.375458 38.448814 8.661079 0.000000 0.000000 0.000000 7.646150 20.325651 -42.187162 -124.169588 -1.071915 3.350807 17.888322 9.264810 2.926998 46.475872 -2.185496 24.559161 -7.277233 3.348135 2.571227 0.000000 0.000000 0.000000 10.175437 23.449679 -46.105761 -64.661934 -14.119714 -8.792010 108.340529 7.774341 -6.468748 -6.857208 23.496254 4.211171 -47.028704 3.857489 -2.153301 0.000000 0.000000 0.000000 4.138855 10.697933 -47.575348 26.532864 -4.511364 -13.490199 3.245695 1.679743 -3.200225 2.725084 3.930418 3.626767 0.000000 0.000000 0.000000 4.450750 1.294506 -3.260974 -1.622614 -0.057037 2.222733 -4.044282 19.738601 4.072350 0.000000 0.000000 0.000000 3.650967 1.705978 -2.946379 0.877183 -21.954333 -12.262027 -1.787211 -4.836512 -2.632157 -41.340956 32.596555 -10.119227 3.584762 -70.209967 5.159518 0.000000 0.000000 0.000000 3.953957 1.193761 -3.533017 2.449134 9.163005 0.074580 9.184726 9.615007 -1.410795 -48.358231 -33.639348 -12.313356 -1.720209 49.523758 0.640229 0.000000 0.000000 0.000000 
-134.847733 41.209541 7.608288 0.000000 0.000000 0.000000 7.942429 17.479765 -45.482380 -125.132057 0.016994 4.605467 30.074026 14.044005 3.492209 39.871199 -0.320022 24.382179 -7.361260 3.288079 2.712924 0.000000 0.000000 0.000000 10.940462 21.590703 -49.789313 -62.890387 -15.940186 -3.811655 102.448459 6.850433 -9.012027 -5.407661 22.953856 8.481714 -45.515390 3.182291 -0.118162 0.000000 0.000000 0.000000 4.358639 10.577753 -50.204674 26.156310 -5.548645 -13.403799 3.632828 1.323533 -3.213142 3.395223 5.229976 3.051111 0.000000 0.000000 0.000000 4.404239 0.966093 -3.336764 -1.229489 0.339725 2.514741 -4.327347 21.040763 4.230401 0.000000 0.000000 0.000000 3.840230 1.384172 -3.231285 1.811931 -21.155403 -11.180083 -2.050599 -4.914812 -2.696578 -44.524948 29.904286 -8.217694 3.042553 -67.321186 4.786764 0.000000 0.000000 0.000000 4.319218 1.058842 -3.538717 2.297583 8.320282 -0.877170 8.743746 8.401125 -1.771977 -48.631654 -38.546067 -15.645721 -1.364136 50.792992 0.483829 0.000000 0.000000 0.000000 
-133.389526 44.050903 6.455101 0.000000 0.000000 0.000000 8.771483 13.528088 -49.628848 -126.469750 0.851327 6.392126 49.202641 18.567507 3.178651 29.905922 0.795008 25.178348 -10.882415 2.767036 3.778051 0.000000 0.000000 0.000000 12.279593 18.321096 -53.981495 -62.110530 -17.992701 0.027737 95.074963 6.116931 -9.858044 -1.447306 22.858358 11.078285 -44.656631 2.481084 1.789078 0.000000 0.000000 0.000000 5.647353 9.349039 -53.266040 25.789852 -6.509698 -12.692143 3.794501 0.791448 -3.133457 3.737863 6.031489 2.244161 0.000000 0.000000 0.000000 4.180348 0.439196 -3.220016 -1.112676 0.898391 2.777014 -5.058052 22.168277 4.803291 0.000000 0.000000 0.000000 3.844117 0.890310 -3.392333 2.645645 -20.111746 -9.860296 -2.035397 -4.509557 -2.907802 -48.504271 26.487829 -5.856061 2.372864 -63.957946 4.043133 0.000000 0.000000 0.000000 4.498603 0.748612 -3.350512 2.033871 7.170146 -1.256257 8.214400 6.944610 -2.176973 -50.223552 -44.350659 -17.825660 -1.066640 53.118654 0.439123 0.000000 0.000000 0.000000 
-132.037277 47.199429 5.028843 0.000000 0.000000 0.000000 9.790804 9.756638 -53.687076 -127.383984 1.168023 8.013165 71.185208 20.824429 2.169419 19.745134 0.206914 25.295433 -17.340363 1.646495 5.606377 0.000000 0.000000 0.000000 13.352661 14.015901 -57.930004 -63.787007 -20.550023 1.878402 86.528525 4.928796 -8.697570 5.392841 22.748515 12.280584 -42.818422 2.110423 2.946942 0.000000 0.000000 0.000000 7.604289 7.444096 -56.233169 25.481189 -7.444777 -11.596572 3.663203 0.125129 -2.996841 2.966790 5.846348 1.278897 0.000000 0.000000 0.000000 3.823125 -0.224698 -2.950986 -1.199580 1.549422 2.952257 -6.239390 22.951025 5.865214 0.000000 0.000000 0.000000 3.631827 0.280224 -3.436088 3.302129 -18.899077 -8.274504 -1.248304 -3.730345 -2.905312 -52.604546 22.965753 -3.597464 1.715625 -61.265035 3.004816 0.000000 0.000000 0.000000 4.448973 0.284593 -3.042410 1.710052 5.732693 -1.227461 7.803752 5.455220 -2.576943 -52.547374 -50.842480 -18.803045 -0.882486 56.207717 0.543419 0.000000 0.000000 0.000000 
